<svg width="23" height="21" viewBox="0 0 23 21" fill="none" xmlns="http://www.w3.org/2000/svg">
<path fill-rule="evenodd" clip-rule="evenodd" d="M3.71348 0.355208C2.81364 0.968753 1.96761 1.70208 1.36137 2.39396C0.965264 2.84604 0.37833 3.64045 0.0954197 4.08448C-0.0258612 4.27484 -0.0534372 4.47244 0.143468 4.58324C0.259962 4.64879 0.547839 4.81186 0.783142 4.94559C1.02389 5.08247 1.32978 5.00965 1.48266 4.77905L1.60925 4.58809C2.32968 3.5012 3.47617 2.35822 4.56475 1.64161L4.76254 1.51142C4.99492 1.35846 5.06848 1.05182 4.93068 0.810456C4.79597 0.574513 4.63199 0.286343 4.5663 0.170104C4.47114 0.00174532 4.26751 -0.0314271 4.10762 0.077696C3.99715 0.153094 3.86152 0.254293 3.71348 0.355208Z" fill="url(#paint0_linear_653_1869)"/>
<path d="M17.4241 0.807005C17.5574 0.571765 17.7197 0.284455 17.7847 0.168563C17.8752 0.00728694 18.0744 -0.0477903 18.2337 0.0451719C18.6467 0.286175 19.4287 0.918596 19.8739 1.30314C20.2016 1.58615 20.712 2.09887 21.0083 2.44247C21.4166 2.91607 22.106 3.67958 22.3217 4.10882C22.406 4.2766 22.325 4.47621 22.1621 4.56854C22.0468 4.6339 21.761 4.79702 21.527 4.93104C21.2876 5.06812 20.9834 4.99495 20.8317 4.76377L20.7025 4.567C19.989 3.47989 18.8678 2.35285 17.7862 1.63568L17.5905 1.50588C17.3605 1.35338 17.2877 1.04765 17.4241 0.807005Z" fill="url(#paint1_linear_653_1869)"/>
<path d="M10 5.74074C10 5.33164 10.291 5 10.65 5C11.009 5 11.3 5.33164 11.3 5.74074V10.2593C11.3 10.6684 11.009 11 10.65 11C10.291 11 10 10.6684 10 10.2593V5.74074Z" fill="url(#paint2_linear_653_1869)"/>
<path d="M10.7407 11C10.3316 11 10 10.709 10 10.35C10 9.99101 10.3316 9.7 10.7407 9.7H15.2593C15.6684 9.7 16 9.99101 16 10.35C16 10.709 15.6684 11 15.2593 11H10.7407Z" fill="url(#paint3_linear_653_1869)"/>
<path d="M20.97 10.985C20.97 16.4996 16.4996 20.97 10.985 20.97C5.47044 20.97 1 16.4996 1 10.985C1 5.47044 5.47044 1 10.985 1C16.4996 1 20.97 5.47044 20.97 10.985ZM2.49775 10.985C2.49775 15.6724 6.29762 19.4722 10.985 19.4722C15.6724 19.4722 19.4722 15.6724 19.4722 10.985C19.4722 6.29762 15.6724 2.49775 10.985 2.49775C6.29762 2.49775 2.49775 6.29762 2.49775 10.985Z" fill="url(#paint4_linear_653_1869)"/>
<defs>
<linearGradient id="paint0_linear_653_1869" x1="5" y1="2.55998" x2="-4.55876e-09" y2="2.55998" gradientUnits="userSpaceOnUse">
<stop stop-color="#D32A1E"/>
<stop offset="1" stop-color="#EB5E54"/>
</linearGradient>
<linearGradient id="paint1_linear_653_1869" x1="22.3555" y1="2.54546" x2="17.3555" y2="2.54546" gradientUnits="userSpaceOnUse">
<stop stop-color="#D32A1E"/>
<stop offset="1" stop-color="#EB5E54"/>
</linearGradient>
<linearGradient id="paint2_linear_653_1869" x1="11.3" y1="8.05455" x2="10" y2="8.05455" gradientUnits="userSpaceOnUse">
<stop stop-color="#D32A1E"/>
<stop offset="1" stop-color="#EB5E54"/>
</linearGradient>
<linearGradient id="paint3_linear_653_1869" x1="13.0545" y1="9.7" x2="13.0545" y2="11" gradientUnits="userSpaceOnUse">
<stop stop-color="#D32A1E"/>
<stop offset="1" stop-color="#EB5E54"/>
</linearGradient>
<linearGradient id="paint4_linear_653_1869" x1="20.97" y1="11.1666" x2="1" y2="11.1666" gradientUnits="userSpaceOnUse">
<stop stop-color="#D32A1E"/>
<stop offset="1" stop-color="#EB5E54"/>
</linearGradient>
</defs>
</svg>
