<svg width="49" height="58" viewBox="0 0 49 58" fill="none" xmlns="http://www.w3.org/2000/svg">
<g filter="url(#filter0_d_1_6)">
<path d="M4 20.5C4 9.17816 13.1782 0 24.5 0V0C35.8218 0 45 9.17816 45 20.5V29.5C45 40.8218 35.8218 50 24.5 50V50C13.1782 50 4 40.8218 4 29.5V20.5Z" fill="url(#paint0_linear_1_6)"/>
<path fill-rule="evenodd" clip-rule="evenodd" d="M26.9641 12.4577C26.7279 12.7095 26.0849 13.3983 25.5353 13.9883C24.9856 14.5783 23.7174 15.9377 22.7171 17.0091C21.7168 18.0805 20.4809 19.4043 19.9707 19.951C19.4606 20.4976 18.3585 21.6783 17.5217 22.5748C16.1108 24.0863 16.0003 24.2263 16 24.5011C15.9995 24.8488 16.1357 24.9619 16.8966 25.2453C17.1686 25.3466 18.1603 25.7195 19.1005 26.074C20.0407 26.4285 21.123 26.8321 21.5056 26.9709C21.8882 27.1097 22.2014 27.2632 22.2014 27.312C22.2014 27.3609 21.8793 29.0119 21.4858 30.9809C21.0922 32.9499 20.7702 34.685 20.7702 34.8368C20.7702 35.1848 20.9727 35.3758 21.3415 35.3758C21.6106 35.3758 21.8529 35.1285 27.2985 29.2929C32.5504 23.6649 32.9767 23.1875 32.9986 22.9082C33.0225 22.6035 32.7357 22.4199 32.4533 22.303C31.9132 22.0792 30.9226 21.6752 29.8343 21.2676C28.2381 20.6697 26.9021 20.1508 26.8655 20.1144C26.8287 20.0779 27.1239 18.4204 27.5214 16.431C27.9189 14.4417 28.2441 12.6901 28.2441 12.5386C28.2441 12.1913 28.0414 12 27.6734 12C27.4356 12 27.3294 12.0685 26.9641 12.4577ZM26.6539 14.6494C26.6539 14.6635 26.4034 15.9298 26.0973 17.4637C25.7912 18.9975 25.5408 20.3758 25.5408 20.5267C25.5408 20.8835 25.6715 20.9887 26.4949 21.2954C27.3197 21.6026 29.8922 22.5656 30.7089 22.873C31.0369 22.9964 31.3052 23.1355 31.3052 23.1821C31.3052 23.2286 30.8555 23.7461 30.3058 24.332C29.7562 24.9179 28.4893 26.274 27.4905 27.3454C26.4917 28.4167 25.4387 29.5444 25.1504 29.8513C24.8622 30.1581 24.3775 30.6769 24.0734 31.0042C22.973 32.1882 22.4179 32.7565 22.3896 32.7282C22.3737 32.7123 22.6111 31.4447 22.9171 29.9114C23.2231 28.378 23.4735 27 23.4735 26.8491C23.4735 26.6877 23.4735 26.5469 23.3344 26.4524C23.2199 26.3746 21.9787 25.8751 20.4919 25.3195C19.0051 24.7638 17.7574 24.2795 17.7194 24.2434C17.6555 24.1827 26.4605 14.6454 26.5943 14.6305C26.627 14.6268 26.6539 14.6353 26.6539 14.6494Z" fill="white"/>
</g>
<defs>
<filter id="filter0_d_1_6" x="0" y="0" width="49" height="58" filterUnits="userSpaceOnUse" color-interpolation-filters="sRGB">
<feFlood flood-opacity="0" result="BackgroundImageFix"/>
<feColorMatrix in="SourceAlpha" type="matrix" values="0 0 0 0 0 0 0 0 0 0 0 0 0 0 0 0 0 0 127 0" result="hardAlpha"/>
<feOffset dy="4"/>
<feGaussianBlur stdDeviation="2"/>
<feComposite in2="hardAlpha" operator="out"/>
<feColorMatrix type="matrix" values="0 0 0 0 0 0 0 0 0 0 0 0 0 0 0 0 0 0 0.25 0"/>
<feBlend mode="normal" in2="BackgroundImageFix" result="effect1_dropShadow_1_6"/>
<feBlend mode="normal" in="SourceGraphic" in2="effect1_dropShadow_1_6" result="shape"/>
</filter>
<linearGradient id="paint0_linear_1_6" x1="45" y1="25.4546" x2="4" y2="25.4546" gradientUnits="userSpaceOnUse">
<stop stop-color="#D32A1E"/>
<stop offset="1" stop-color="#EB5E54"/>
</linearGradient>
</defs>
</svg>
