<svg width="24" height="24" viewBox="0 0 24 24" fill="none" xmlns="http://www.w3.org/2000/svg">
<g clip-path="url(#clip0_614_2733)">
<path d="M0.666666 10.6667H15.3333C15.7015 10.6667 16 11.1144 16 11.6667C16 12.219 15.7015 12.6667 15.3333 12.6667H0.666666C0.298476 12.6667 0 12.219 0 11.6667C0 11.1144 0.298476 10.6667 0.666666 10.6667Z" fill="url(#paint0_linear_614_2733)"/>
<path d="M1.00001 4H23C23.5523 4 24 4.44772 24 5C24 5.55228 23.5523 6 23 6H1.00001C0.447725 6 9.53674e-06 5.55228 9.53674e-06 5C9.53674e-06 4.44772 0.447725 4 1.00001 4Z" fill="url(#paint1_linear_614_2733)"/>
<path d="M1.00001 18H23C23.5523 18 24 18.4477 24 19C24 19.5523 23.5523 20 23 20H1.00001C0.447725 20 9.53674e-06 19.5523 9.53674e-06 19C9.53674e-06 18.4477 0.447725 18 1.00001 18Z" fill="url(#paint2_linear_614_2733)"/>
</g>
<defs>
<linearGradient id="paint0_linear_614_2733" x1="1.4588e-08" y1="11.6849" x2="16" y2="11.6849" gradientUnits="userSpaceOnUse">
<stop stop-color="#D32A1E"/>
<stop offset="1" stop-color="#EB5E54"/>
</linearGradient>
<linearGradient id="paint1_linear_614_2733" x1="9.55863e-06" y1="5.01818" x2="24" y2="5.01818" gradientUnits="userSpaceOnUse">
<stop stop-color="#D32A1E"/>
<stop offset="1" stop-color="#EB5E54"/>
</linearGradient>
<linearGradient id="paint2_linear_614_2733" x1="9.55863e-06" y1="19.0182" x2="24" y2="19.0182" gradientUnits="userSpaceOnUse">
<stop stop-color="#D32A1E"/>
<stop offset="1" stop-color="#EB5E54"/>
</linearGradient>
<clipPath id="clip0_614_2733">
<rect width="24" height="24" fill="white" transform="matrix(-1 0 0 1 24 0)"/>
</clipPath>
</defs>
</svg>
