<svg width="30" height="30" viewBox="0 0 30 30" fill="none" xmlns="http://www.w3.org/2000/svg">
<path fill-rule="evenodd" clip-rule="evenodd" d="M0 15C0 6.71573 6.71573 0 15 0C23.2843 0 30 6.71573 30 15C30 23.2843 23.2843 30 15 30C6.71573 30 0 23.2843 0 15Z" fill="url(#paint0_linear_2_2791)"/>
<g clip-path="url(#clip0_2_2791)">
<path d="M22.4171 19.3776C22.3979 19.3366 22.3802 19.3023 22.3636 19.2749C22.0902 18.7821 21.5682 18.177 20.7974 17.4598L20.7809 17.4434L20.7727 17.435L20.7646 17.4271H20.7564C20.4065 17.093 20.185 16.8686 20.0923 16.7534C19.9229 16.5347 19.8845 16.3129 19.9775 16.0885C20.0434 15.9188 20.2893 15.5602 20.7157 15.0124C20.9398 14.7224 21.1174 14.4899 21.2487 14.3141C22.1944 13.0549 22.6043 12.2504 22.4787 11.8997L22.4293 11.8176C22.3965 11.7681 22.3116 11.723 22.175 11.682C22.0384 11.6409 21.8634 11.6344 21.6504 11.6616L19.2887 11.6784C19.234 11.6728 19.1794 11.6743 19.1245 11.6822C19.0699 11.6906 19.0344 11.6988 19.0179 11.7069C19.0013 11.7153 18.9879 11.722 18.9769 11.7273L18.9441 11.752C18.9167 11.7684 18.8868 11.7972 18.8539 11.8385C18.8211 11.8795 18.7935 11.9273 18.772 11.9822C18.515 12.6447 18.2227 13.2606 17.8945 13.8302C17.6923 14.1696 17.5063 14.4642 17.3371 14.7131C17.1676 14.9625 17.0255 15.1459 16.9107 15.2632C16.7959 15.3809 16.6919 15.4757 16.5991 15.5465C16.5062 15.618 16.435 15.6478 16.3861 15.637C16.3367 15.6262 16.2902 15.6151 16.2466 15.6038C16.1701 15.5546 16.1083 15.4877 16.062 15.4027C16.0156 15.318 15.9842 15.2111 15.9676 15.0825C15.9513 14.9538 15.9415 14.8429 15.9391 14.7498C15.9362 14.6567 15.9377 14.5254 15.9432 14.3557C15.9487 14.186 15.9513 14.0712 15.9513 14.0107C15.9513 13.8029 15.9554 13.577 15.9638 13.3331C15.9719 13.0895 15.9789 12.8965 15.9842 12.7542C15.9897 12.6121 15.9923 12.4613 15.9923 12.3024C15.9923 12.144 15.9827 12.0192 15.9635 11.9287C15.9444 11.8385 15.9156 11.7511 15.8775 11.6659C15.8392 11.5811 15.7831 11.5154 15.7093 11.469C15.6354 11.4225 15.5439 11.3855 15.4346 11.3582C15.1446 11.2924 14.7758 11.2571 14.3276 11.2513C13.3107 11.2408 12.6573 11.3065 12.3676 11.4486C12.2528 11.5091 12.1488 11.591 12.056 11.6952C11.9575 11.8157 11.9438 11.8817 12.015 11.892C12.3431 11.9414 12.5754 12.0593 12.712 12.2453L12.7613 12.3437C12.7995 12.4153 12.8378 12.541 12.8761 12.7215C12.9145 12.9023 12.9389 13.102 12.95 13.3211C12.9773 13.7208 12.9773 14.0628 12.95 14.3478C12.9226 14.6327 12.8968 14.8542 12.8721 15.0126C12.8474 15.1715 12.8105 15.3 12.7613 15.3986C12.712 15.4975 12.6794 15.5578 12.6628 15.5796C12.6463 15.6014 12.6329 15.6151 12.6219 15.6206C12.5507 15.6478 12.4771 15.6617 12.4004 15.6617C12.3237 15.6617 12.231 15.6233 12.1214 15.5465C12.0121 15.4701 11.8985 15.3645 11.7811 15.2304C11.6634 15.0964 11.5311 14.9087 11.3833 14.6677C11.2356 14.427 11.0825 14.1423 10.9241 13.8137L10.793 13.5753C10.711 13.4222 10.5988 13.199 10.4567 12.9061C10.3146 12.6133 10.1888 12.33 10.0795 12.0559C10.0356 11.9412 9.97017 11.8536 9.8827 11.7931L9.84171 11.7684C9.81439 11.7465 9.77053 11.7232 9.71037 11.6988C9.64998 11.674 9.58743 11.6563 9.52176 11.6452L7.27487 11.6616C7.04527 11.6616 6.88949 11.7139 6.80752 11.8178L6.77469 11.867C6.75815 11.8946 6.75 11.9386 6.75 11.9986C6.75 12.059 6.76654 12.1327 6.79937 12.2201C7.12748 12.9923 7.4841 13.7369 7.86949 14.4538C8.25511 15.1713 8.58969 15.7491 8.87417 16.1869C9.15842 16.6252 9.44818 17.0383 9.74345 17.4271C10.0387 17.816 10.234 18.0649 10.3297 18.1743C10.4253 18.284 10.5003 18.3661 10.5552 18.4209L10.7601 18.6182C10.8912 18.7495 11.0841 18.9069 11.3382 19.0903C11.5925 19.2739 11.8739 19.4544 12.1828 19.6321C12.4915 19.8102 12.8512 19.9549 13.2611 20.0675C13.6711 20.1798 14.0702 20.2249 14.4582 20.2029H15.4013C15.5928 20.1865 15.7375 20.1265 15.8358 20.0221L15.8686 19.9811C15.8904 19.9484 15.9111 19.8975 15.9302 19.8294C15.9492 19.761 15.959 19.6856 15.959 19.6035C15.9532 19.368 15.9712 19.1556 16.0122 18.9669C16.0532 18.778 16.0997 18.6357 16.1517 18.5397C16.2037 18.4441 16.2622 18.3632 16.3281 18.2975C16.3937 18.2317 16.44 18.1923 16.4676 18.1784C16.4949 18.165 16.5169 18.1554 16.5332 18.1496C16.6643 18.1059 16.8187 18.1484 16.9965 18.2768C17.1741 18.4057 17.3409 18.5642 17.4967 18.7533C17.6525 18.9422 17.8397 19.1542 18.0585 19.3899C18.2771 19.6253 18.4683 19.8003 18.6325 19.9153L18.7967 20.0142C18.9059 20.0797 19.0481 20.14 19.223 20.1949C19.398 20.2494 19.5511 20.2633 19.6822 20.236L21.7815 20.2029C21.9893 20.2029 22.1506 20.1688 22.2654 20.1001C22.3802 20.0322 22.4485 19.9563 22.4703 19.8743C22.4921 19.7922 22.4935 19.6995 22.4744 19.5951C22.4552 19.4912 22.436 19.4187 22.4171 19.3776Z" fill="white"/>
</g>
<defs>
<linearGradient id="paint0_linear_2_2791" x1="30" y1="15.2727" x2="-2.73525e-08" y2="15.2727" gradientUnits="userSpaceOnUse">
<stop stop-color="#D32A1E"/>
<stop offset="1" stop-color="#EB5E54"/>
</linearGradient>
<clipPath id="clip0_2_2791">
<rect width="15.75" height="9" fill="white" transform="translate(6.75 11.25)"/>
</clipPath>
</defs>
</svg>
