<svg width="30" height="30" viewBox="0 0 30 30" fill="none" xmlns="http://www.w3.org/2000/svg">
<path fill-rule="evenodd" clip-rule="evenodd" d="M0 15C0 6.71573 6.71573 0 15 0C23.2843 0 30 6.71573 30 15C30 23.2843 23.2843 30 15 30C6.71573 30 0 23.2843 0 15Z" fill="url(#paint0_linear_2_2792)"/>
<g clip-path="url(#clip0_2_2792)">
<path d="M23.0529 11.8413C22.9036 10.733 22.2224 10.0379 21.0133 9.9352C19.6288 9.81766 16.6318 9.75 15.2417 9.75C12.3983 9.75 11.1277 9.81527 9.78303 9.94608C8.50163 10.0705 7.94068 10.6057 7.7202 11.7105C7.56578 12.4847 7.5 13.2098 7.5 14.9236C7.5 16.463 7.57735 17.4312 7.69705 18.2457C7.86164 19.3643 8.67864 19.9929 9.87591 20.0866C11.2688 20.1956 14.0592 20.25 15.4388 20.25C16.7719 20.25 19.772 20.1847 21.1059 20.043C22.2997 19.9162 22.8675 19.3168 23.0529 18.2131C23.0529 18.2131 23.25 17.004 23.25 14.9127C23.25 13.7219 23.1574 12.6145 23.0529 11.8413ZM13.7003 17.0804V12.8251L18.0115 14.931L13.7003 17.0804Z" fill="white"/>
</g>
<defs>
<linearGradient id="paint0_linear_2_2792" x1="30" y1="15.2727" x2="-2.73525e-08" y2="15.2727" gradientUnits="userSpaceOnUse">
<stop stop-color="#D32A1E"/>
<stop offset="1" stop-color="#EB5E54"/>
</linearGradient>
<clipPath id="clip0_2_2792">
<rect width="15.75" height="10.5" fill="white" transform="translate(7.5 9.75)"/>
</clipPath>
</defs>
</svg>
